<svg width="1687" height="700" viewBox="0 0 1687 700" fill="none" xmlns="http://www.w3.org/2000/svg">
<path d="M1446.71 298.515L1526.93 252.148C1537.44 245.965 1546.71 245.192 1554.75 249.829C1562.79 254.466 1566.8 262.967 1566.8 275.332V344.883C1566.8 352.92 1564.95 361.576 1561.24 370.849C1557.53 380.123 1552.58 388.778 1546.4 396.815C1540.53 404.543 1534.04 410.416 1526.93 414.435L1486.59 437.619C1476.08 443.801 1466.8 444.574 1458.77 439.937C1450.73 435.3 1446.71 426.8 1446.71 414.435V521.081L1566.8 451.529V497.897L1446.71 567.449C1435.89 573.631 1426.46 574.404 1418.43 569.767C1410.39 565.13 1406.37 556.63 1406.37 544.265V368.067C1406.37 359.721 1408.23 351.066 1411.94 342.101C1415.64 332.828 1420.59 324.327 1426.77 316.599C1432.96 308.562 1439.6 302.534 1446.71 298.515ZM1526.93 298.515L1446.71 344.883V414.435L1526.93 368.067V298.515ZM1566.8 451.529L1446.71 521.081L1406.37 497.897L1526.93 428.345L1566.8 451.529ZM1526.93 298.515V368.067L1486.59 344.883V275.332L1526.93 298.515ZM1446.71 414.435C1446.71 426.8 1450.73 435.3 1458.77 439.937L1418.43 416.753C1410.39 412.117 1406.37 403.616 1406.37 391.251L1446.71 414.435ZM1526.93 368.067L1446.71 414.435L1406.37 391.251L1486.59 344.883L1526.93 368.067ZM1554.75 249.829C1546.71 245.192 1537.44 245.965 1526.93 252.148L1446.71 298.515C1439.6 302.534 1432.96 308.562 1426.77 316.599C1420.59 324.327 1415.64 332.828 1411.94 342.101C1408.23 351.066 1406.37 359.721 1406.37 368.067V544.265C1406.37 556.63 1410.39 565.13 1418.43 569.767L1378.09 546.583C1370.05 541.946 1366.03 533.446 1366.03 521.081V344.883C1366.03 336.537 1367.89 327.882 1371.6 318.917C1375.3 309.644 1380.25 301.143 1386.43 293.415C1392.62 285.378 1399.26 279.35 1406.37 275.332L1486.59 228.964C1497.41 222.781 1506.83 222.009 1514.87 226.645L1554.75 249.829Z" fill="white"/>
<path d="M1228.99 375.022L1189.12 398.206V351.838L1228.99 328.655V282.287L1269.33 259.103V351.838C1269.33 343.492 1271.19 334.837 1274.9 325.872C1278.61 316.599 1283.4 308.098 1289.27 300.37C1295.45 292.333 1302.1 286.305 1309.21 282.287L1349.55 259.103V305.471L1269.33 351.838V528.036L1349.55 481.668V528.036L1269.33 574.404C1258.51 580.586 1249.09 581.359 1241.05 576.722C1233.01 572.086 1228.99 563.585 1228.99 551.22V375.022ZM1349.55 481.668L1269.33 528.036L1228.99 504.852L1309.21 458.484L1349.55 481.668ZM1349.55 259.103L1309.21 282.287C1302.1 286.305 1295.45 292.333 1289.27 300.37C1283.4 308.098 1278.61 316.599 1274.9 325.872C1271.19 334.837 1269.33 343.492 1269.33 351.838L1228.99 328.655C1228.99 320.308 1230.85 311.653 1234.56 302.689C1238.27 293.415 1243.21 284.914 1249.4 277.186C1255.58 269.149 1262.22 263.121 1269.33 259.103L1309.21 235.919L1349.55 259.103ZM1228.99 328.655L1189.12 351.838L1148.78 328.655L1189.12 305.471L1228.99 328.655ZM1228.99 375.022V551.22C1228.99 563.585 1233.01 572.086 1241.05 576.722L1201.17 553.538C1193.14 548.902 1189.12 540.401 1189.12 528.036V351.838L1228.99 375.022ZM1269.33 259.103L1228.99 282.287L1189.12 259.103L1228.99 235.919L1269.33 259.103ZM1228.99 282.287V328.655L1189.12 305.471V259.103L1228.99 282.287ZM1189.12 351.838V398.206L1148.78 375.022V328.655L1189.12 351.838Z" fill="white"/>
<path d="M991.32 321.699L1111.88 252.148C1122.39 245.965 1131.66 245.192 1139.7 249.829C1147.73 254.466 1151.75 262.967 1151.75 275.332V497.897L1111.88 521.081V474.713C1111.88 482.75 1110.02 491.406 1106.31 500.679C1102.6 509.953 1097.66 518.608 1091.47 526.645C1085.29 534.373 1078.65 540.246 1071.54 544.265L1031.66 567.449C1020.84 573.631 1011.41 574.404 1003.38 569.767C995.339 565.13 991.32 556.63 991.32 544.265V479.35C991.32 471.004 993.175 462.348 996.885 453.384C1000.59 444.11 1005.54 435.61 1011.72 427.882C1017.9 419.845 1024.55 413.817 1031.66 409.798L1111.88 363.43V298.515L991.32 368.067V321.699ZM1031.66 521.081L1111.88 474.713V409.798L1031.66 456.166V521.081ZM1111.88 298.515V363.43L1071.54 340.246V275.332L1111.88 298.515ZM1111.88 474.713V521.081L1071.54 497.897V451.529L1111.88 474.713ZM1111.88 409.798V474.713L1071.54 451.529V386.614L1111.88 409.798ZM1111.88 474.713L1031.66 521.081L991.32 497.897L1071.54 451.529L1111.88 474.713ZM1111.88 363.43L1031.66 409.798C1024.55 413.817 1017.9 419.845 1011.72 427.882C1005.54 435.61 1000.59 444.11 996.885 453.384C993.175 462.348 991.32 471.004 991.32 479.35V544.265C991.32 556.63 995.339 565.13 1003.38 569.767L963.036 546.583C954.999 541.946 950.98 533.446 950.98 521.081V456.166C950.98 447.82 952.835 439.164 956.545 430.2C960.254 420.926 965.2 412.426 971.382 404.698C977.565 396.661 984.211 390.633 991.32 386.614L1071.54 340.246L1111.88 363.43ZM1139.7 249.829C1131.66 245.192 1122.39 245.965 1111.88 252.148L991.32 321.699L950.98 298.515L1071.54 228.964C1082.36 222.781 1091.78 222.009 1099.82 226.645L1139.7 249.829ZM991.32 321.699V368.067L950.98 344.883V298.515L991.32 321.699Z" fill="white"/>
<path d="M853.826 567.447C843.316 573.629 834.042 574.402 826.005 569.765C817.968 565.128 813.95 556.627 813.95 544.263L894.166 497.895V270.693L934.042 247.509V428.343C934.042 436.38 932.187 445.035 928.478 454.309C924.769 463.583 919.823 472.238 913.64 480.275C907.767 488.003 901.276 493.876 894.166 497.895C894.166 505.932 892.311 514.587 888.602 523.861C884.892 533.134 879.946 541.635 873.764 549.363C867.582 557.4 860.936 563.428 853.826 567.447ZM773.61 340.244L813.95 317.06V544.263C803.13 550.445 793.702 551.218 785.665 546.581C777.628 541.944 773.61 533.443 773.61 521.079V340.244ZM934.042 247.509L894.166 270.693L853.826 247.509L894.166 224.325L934.042 247.509ZM894.166 270.693V497.895L853.826 474.711V247.509L894.166 270.693ZM894.166 497.895L813.95 544.263L773.61 521.079L853.826 474.711L894.166 497.895ZM813.95 544.263C813.95 556.627 817.968 565.128 826.005 569.765L785.665 546.581C777.628 541.944 773.61 533.443 773.61 521.079L813.95 544.263ZM813.95 317.06L773.61 340.244L733.27 317.06L773.61 293.876L813.95 317.06ZM773.61 340.244V521.079C773.61 533.443 777.628 541.944 785.665 546.581L745.325 523.397C737.288 518.76 733.27 510.26 733.27 497.895V317.06L773.61 340.244Z" fill="white"/>
<path d="M596.239 298.515L676.455 252.148C686.965 245.965 696.238 245.192 704.276 249.829C712.313 254.466 716.331 262.967 716.331 275.332V344.883C716.331 352.92 714.477 361.576 710.767 370.849C707.058 380.123 702.112 388.778 695.929 396.815C690.056 404.543 683.565 410.416 676.455 414.435L636.115 437.619C625.605 443.801 616.331 444.574 608.294 439.937C600.257 435.3 596.239 426.8 596.239 414.435V521.081L716.331 451.529V497.897L596.239 567.449C585.419 573.631 575.991 574.404 567.954 569.767C559.917 565.13 555.899 556.63 555.899 544.265V368.067C555.899 359.721 557.753 351.066 561.463 342.101C565.172 332.828 570.118 324.327 576.3 316.599C582.483 308.562 589.129 302.534 596.239 298.515ZM676.455 298.515L596.239 344.883V414.435L676.455 368.067V298.515ZM716.331 451.529L596.239 521.081L555.899 497.897L676.455 428.345L716.331 451.529ZM676.455 298.515V368.067L636.115 344.883V275.332L676.455 298.515ZM596.239 414.435C596.239 426.8 600.257 435.3 608.294 439.937L567.954 416.753C559.917 412.117 555.899 403.616 555.899 391.251L596.239 414.435ZM676.455 368.067L596.239 414.435L555.899 391.251L636.115 344.883L676.455 368.067ZM704.276 249.829C696.238 245.192 686.965 245.965 676.455 252.148L596.239 298.515C589.129 302.534 582.483 308.562 576.3 316.599C570.118 324.327 565.172 332.828 561.463 342.101C557.753 351.066 555.899 359.721 555.899 368.067V544.265C555.899 556.63 559.917 565.13 567.954 569.767L527.614 546.583C519.577 541.946 515.559 533.446 515.559 521.081V344.883C515.559 336.537 517.413 327.882 521.123 318.917C524.832 309.644 529.778 301.143 535.96 293.415C542.143 285.378 548.789 279.35 555.899 275.332L636.115 228.964C646.934 222.781 656.362 222.009 664.399 226.645L704.276 249.829Z" fill="white"/>
<path d="M438.758 521.081L498.573 486.305V532.673L438.758 567.448C427.939 573.631 418.511 574.404 410.474 569.767C402.437 565.13 398.418 556.629 398.418 544.264V201.143L438.758 177.959V521.081ZM438.758 177.959L398.418 201.143L358.078 177.959L398.418 154.775L438.758 177.959ZM498.573 486.305L438.758 521.081L398.418 497.897L458.696 463.121L498.573 486.305ZM398.418 201.143V544.264C398.418 556.629 402.437 565.13 410.474 569.767L370.134 546.583C362.097 541.946 358.078 533.445 358.078 521.081V177.959L398.418 201.143Z" fill="white"/>
<path d="M160.34 293.879C160.34 285.533 162.195 276.878 165.904 267.913C169.614 258.64 174.559 250.139 180.742 242.411C186.924 234.374 193.57 228.346 200.68 224.328L341.174 143.184V189.552L200.68 270.695V372.705L341.174 291.561V337.929L200.68 419.072V521.082L341.174 439.938V486.306L200.68 567.449C189.861 573.632 180.433 574.404 172.396 569.768C164.359 565.131 160.34 556.63 160.34 544.265V293.879ZM341.174 439.938L200.68 521.082L160.34 497.898L300.834 416.754L341.174 439.938ZM341.174 291.561L200.68 372.705L160.34 349.521L300.834 268.377L341.174 291.561ZM341.174 143.184L200.68 224.328C193.57 228.346 186.924 234.374 180.742 242.411C174.559 250.139 169.614 258.64 165.904 267.913C162.195 276.878 160.34 285.533 160.34 293.879V544.265C160.34 556.63 164.359 565.131 172.396 569.768L132.056 546.584C124.019 541.947 120 533.446 120 521.082V270.695C120 262.349 121.855 253.694 125.564 244.729C129.274 235.456 134.219 226.955 140.402 219.227C146.584 211.19 153.23 205.162 160.34 201.144L300.834 120L341.174 143.184Z" fill="white"/>
</svg>
